:SAMPLES-PER-SECOND 30
:FULLY-SPECIFIED
:DEGREES
215
root  35.3006 38.1452 5.87052 -28.5914 82.3904 -34.4449
RightUpLeg  -25.8389 -2.83208 1.73453
RightLeg  57.7472 -5.52662 -9.81316
RightFoot  -6.74028 -0.120967 1.86017
RightToes  0.000482159 0.542163 -0.142577
Spine  51.8479 -3.61853 7.11617
Spine1  10.2416 2.1132 -7.94628
HEad  -2.95507 22.0176 -20.8097
LeftShoulder1  12.0664 -18.9465 -46.8737
LeftArm  -5.29735 -1.89989 -15.824
LeftForeArm  19.7609 -6.34487 -8.29746
LeftHand  -0.25398 0.0180481 5.50724
RightShoulder  6.54774 14.2313 30.9443
RightArm  11.0629 22.3217 30.8545
RightForeArm  -16.1979 17.8514 7.7195
RightHand  -2.33038 5.74982 -24.3194
LeftUpLeg  -30.6469 12.8548 -0.739771
LeftLeg  6.90169 11.9385 -6.05416
LeftFoot  15.0372 -3.07825 12.6838
LeftToes  1.06245e-005 4.65856e-005 -8.18503e-006
216
root  34.7121 37.9958 6.016 -30.9864 82.5497 -34.608
RightUpLeg  -19.2369 -3.50284 2.14085
RightLeg  58.2527 -5.06126 -9.2249
RightFoot  -7.76407 -0.121186 2.16411
RightToes  0.000482159 0.542163 -0.142577
Spine  49.1324 -3.15304 7.05978
Spine1  10.5269 2.4141 -8.02941
HEad  0.971146 24.8935 -19.2325
LeftShoulder1  11.8673 -18.2669 -47.5639
LeftArm  -3.03805 7.84557 -14.5345
LeftForeArm  20.0816 -7.91008 -8.11341
LeftHand  -0.25398 0.0180481 5.50724
RightShoulder  6.74352 13.738 33.149
RightArm  16.3936 15.056 30.3244
RightForeArm  -19.2858 20.9461 6.48205
RightHand  -2.20509 5.15076 -24.3043
LeftUpLeg  -29.061 12.8293 -0.106857
LeftLeg  6.71397 12.134 -6.11848
LeftFoot  15.7911 -3.01672 12.0488
LeftToes  1.06245e-005 4.65856e-005 -8.18503e-006
217
root  34.0642 37.793 6.17612 -31.5646 82.8167 -33.1116
RightUpLeg  -12.5988 -4.26924 2.20636
RightLeg  56.9273 -3.99496 -7.04773
RightFoot  -7.97355 -0.158149 3.46987
RightToes  0.000482159 0.542163 -0.142577
Spine  46.3176 -2.52678 6.78714
Spine1  10.7865 2.7557 -8.0646
HEad  4.75149 26.9751 -17.4816
LeftShoulder1  11.5285 -17.6077 -47.654
LeftArm  -0.720098 16.8455 -13.0884
LeftForeArm  18.8815 -9.46693 -7.82921
LeftHand  -0.25398 0.0180481 5.50724
RightShoulder  6.79117 13.2349 34.6015
RightArm  18.3742 8.38026 30.0478
RightForeArm  -19.6816 23.0666 5.99046
RightHand  -2.10482 4.68128 -24.2686
LeftUpLeg  -27.8359 12.7831 0.220205
LeftLeg  6.7044 12.3607 -6.07285
LeftFoot  16.1957 -2.89959 11.383
LeftToes  1.06245e-005 4.65856e-005 -8.18503e-006
218
root  33.3491 37.5493 6.30662 -25.7115 83.2887 -26.1087
RightUpLeg  -6.98399 -4.91647 1.35457
RightLeg  53.8251 -2.60921 -4.24931
RightFoot  -9.67076 -0.150685 6.59839
RightToes  0.000482159 0.542163 -0.142577
Spine  42.3484 -1.6523 6.09254
Spine1  11.4212 3.05853 -7.95764
HEad  8.0987 28.5705 -16.0516
LeftShoulder1  10.9382 -16.8368 -46.9158
LeftArm  0.19107 25.0254 -12.4152
LeftForeArm  17.2601 -10.8275 -7.18903
LeftHand  -0.25398 0.0180481 5.50724
RightShoulder  6.70201 12.6884 35.4106
RightArm  18.0374 2.54577 30.1625
RightForeArm  -18.3582 24.4349 6.08775
RightHand  -2.03059 4.40817 -24.0678
LeftUpLeg  -27.1781 10.9443 0.512815
LeftLeg  5.65172 14.5793 -6.29818
LeftFoot  16.7533 -2.65408 10.1722
LeftToes  1.06245e-005 4.65856e-005 -8.18503e-006
219
root  32.564 37.3082 6.38713 -12.89 83.6306 -13.1377
RightUpLeg  -2.7939 -5.48949 -0.140679
RightLeg  49.0707 -1.82847 -2.60254
RightFoot  -15.1001 0.208499 9.44302
RightToes  0.000482159 0.542163 -0.142577
Spine  36.97 -0.58607 5.16065
Spine1  12.5871 3.3823 -7.63017
HEad  11.2498 29.8181 -14.7903
LeftShoulder1  10.2462 -16.0459 -45.6953
LeftArm  -0.656574 32.1815 -12.6998
LeftForeArm  15.7306 -11.896 -6.29932
LeftHand  -0.25398 0.0180481 5.50724
RightShoulder  6.49526 12.0878 35.6766
RightArm  16.6121 -2.17743 30.7151
RightForeArm  -17.0218 25.2726 6.24267
RightHand  -1.99265 4.24877 -24.0069
LeftUpLeg  -26.9562 7.68864 0.785726
LeftLeg  3.06785 18.8724 -7.00923
LeftFoot  17.5444 -2.13423 7.8641
LeftToes  1.06245e-005 4.65856e-005 -8.18503e-006
220
root  31.6492 37.1326 6.42138 -1.70503 83.3974 -1.77849
RightUpLeg  0.344256 -6.14673 -1.17114
RightLeg  43.4237 -2.27449 -2.59163
RightFoot  -22.7362 0.764416 9.37578
RightToes  0.000482159 0.542163 -0.142577
Spine  32.1887 0.291485 4.74814
Spine1  13.6885 3.92061 -7.49362
HEad  14.613 31.1389 -13.571
LeftShoulder1  9.61973 -15.3169 -44.5196
LeftArm  -2.29734 37.9358 -13.5047
LeftForeArm  14.3422 -12.5305 -5.48965
LeftHand  -0.25398 0.0180481 5.50724
RightShoulder  6.2293 11.4788 35.5996
RightArm  14.2076 -5.75994 31.5258
RightForeArm  -15.8328 25.7725 6.30623
RightHand  -1.96442 4.09693 -24.0391
LeftUpLeg  -26.4166 5.15835 1.16222
LeftLeg  -0.103207 23.0903 -8.03069
LeftFoot  16.5449 -1.20236 4.40536
LeftToes  1.06245e-005 4.65856e-005 -8.18503e-006
221
root  30.5466 37.0925 6.39484 -1.36562 82.8381 -0.49884
RightUpLeg  2.37867 -7.04411 -0.90906
RightLeg  38.7516 -3.69156 -3.45577
RightFoot  -28.022 0.757932 6.44122
RightToes  0.000482159 0.542163 -0.142577
Spine  29.786 0.570075 5.85529
Spine1  14.424 4.70292 -7.95519
HEad  17.4991 32.5977 -12.9369
LeftShoulder1  9.03885 -14.489 -43.7191
LeftArm  -4.40509 41.567 -14.6565
LeftForeArm  13.2953 -12.543 -4.85122
LeftHand  -0.25398 0.0180481 5.50724
RightShoulder  6.00556 10.9545 35.5639
RightArm  10.625 -8.21693 32.0224
RightForeArm  -14.5324 26.3868 6.39206
RightHand  -1.92141 3.95531 -23.8718
LeftUpLeg  -24.9162 4.47939 1.79808
LeftLeg  -3.06704 24.6675 -8.80577
LeftFoot  11.6451 -0.0422539 -0.241417
LeftToes  1.06245e-005 4.65856e-005 -8.18503e-006
222
root  29.3192 37.1622 6.28878 -9.33698 82.5404 -7.25381
RightUpLeg  2.77359 -8.56862 0.180483
RightLeg  36.6758 -4.75233 -4.06814
RightFoot  -29.3017 0.307904 3.17258
RightToes  0.000482159 0.542163 -0.142577
Spine  28.8837 0.249889 8.44343
Spine1  15.1345 5.32612 -8.58044
HEad  19.174 34.0316 -13.2637
LeftShoulder1  8.47981 -13.4771 -43.447
LeftArm  -7.31131 42.8112 -16.4535
LeftForeArm  12.4679 -12.2954 -4.19918
LeftHand  -0.25398 0.0180481 5.50724
RightShoulder  5.90232 10.5928 35.8907
RightArm  6.36857 -9.54379 31.7594
RightForeArm  -13.4945 27.4352 6.59543
RightHand  -1.8988 3.92725 -23.6702
LeftUpLeg  -23.0489 4.44714 2.78832
LeftLeg  -5.73232 23.2676 -9.05037
LeftFoot  4.25936 0.794414 -6.06719
LeftToes  1.06245e-005 4.65856e-005 -8.18503e-006
223
root  28.0843 37.2633 6.1363 -18.282 83.0357 -15.4341
RightUpLeg  1.64161 -10.9026 0.910225
RightLeg  36.6635 -4.52857 -3.88208
RightFoot  -28.6416 0.0280166 1.46469
RightToes  0.000482159 0.542163 -0.142577
Spine  27.8843 -0.275242 11.031
Spine1  15.9318 5.34097 -8.61305
HEad  20.0091 35.1262 -14.0343
LeftShoulder1  8.06475 -12.5759 -43.6436
LeftArm  -10.5376 42.4432 -18.9295
LeftForeArm  11.4092 -12.4914 -3.5908
LeftHand  -0.25398 0.0180481 5.50724
RightShoulder  5.89423 10.3799 36.4604
RightArm  2.52765 -9.99939 31.1041
RightForeArm  -12.9737 28.4475 6.81813
RightHand  -1.94116 4.08117 -23.8027
LeftUpLeg  -22.3287 4.04584 3.38887
LeftLeg  -6.73445 20.5765 -8.59503
LeftFoot  -1.38301 1.01005 -11.2296
LeftToes  1.06245e-005 4.65856e-005 -8.18503e-006
224
root  26.8956 37.4606 6.00817 -24.5028 84.5384 -21.2925
RightUpLeg  0.128739 -13.6665 0.705205
RightLeg  36.6098 -3.66757 -3.19751
RightFoot  -27.4413 -0.0875949 0.696136
RightToes  0.000482159 0.542163 -0.142577
Spine  26.8633 -0.650105 12.2168
Spine1  16.4864 4.89512 -8.0385
HEad  21.1052 35.6195 -14.1218
LeftShoulder1  7.8866 -12.1115 -43.962
LeftArm  -12.9826 41.4646 -21.652
LeftForeArm  10.4763 -13.4187 -3.33266
LeftHand  -0.25398 0.0180481 5.50724
RightShoulder  5.89051 10.2177 36.9221
RightArm  0.0305877 -10.1077 30.7873
RightForeArm  -12.7416 28.6308 6.85289
RightHand  -2.01628 4.31042 -24.1334
LeftUpLeg  -22.254 3.41585 2.87526
LeftLeg  -6.19832 18.6087 -8.25747
LeftFoot  -2.25906 1.0217 -12.6491
LeftToes  1.06245e-005 4.65856e-005 -8.18503e-006
225
root  25.7774 37.8173 5.92202 -26.2186 86.2985 -22.6494
RightUpLeg  -0.817284 -16.0953 -0.051352
RightLeg  35.3617 -3.06416 -2.60388
RightFoot  -25.523 -0.219337 -0.385789
RightToes  0.000482159 0.542163 -0.142577
Spine  26.4405 -0.730127 12.1654
Spine1  16.5053 4.59142 -7.49294
HEad  22.8413 35.4375 -13.1475
LeftShoulder1  7.87605 -12.026 -44.1542
LeftArm  -14.2348 40.2023 -24.1007
LeftForeArm  11.0612 -15.0196 -3.40634
LeftHand  -0.25398 0.0180481 5.50724
RightShoulder  5.86467 10.0676 37.1981
RightArm  -0.711423 -10.3022 30.9778
RightForeArm  -12.8606 27.9546 6.69179
RightHand  -2.06374 4.47453 -24.2885
LeftUpLeg  -21.8642 2.93926 1.76784
LeftLeg  -3.85334 17.623 -7.86779
LeftFoot  -0.490156 1.03622 -10.8666
LeftToes  1.06245e-005 4.65856e-005 -8.18503e-006
226
root  24.7612 38.2808 5.82738 -18.2051 87.4407 -14.3345
RightUpLeg  -1.35358 -17.6255 -0.888787
RightLeg  33.2373 -2.78895 -2.22634
RightFoot  -22.7507 -0.307904 -1.5363
RightToes  0.000482159 0.542163 -0.142577
Spine  26.2372 -0.50762 11.8258
Spine1  16.0893 4.731 -7.46253
HEad  24.7709 34.875 -11.7838
LeftShoulder1  7.88796 -12.014 -44.2605
LeftArm  -14.8101 38.5803 -26.027
LeftForeArm  14.0246 -17.2968 -3.51314
LeftHand  -0.25398 0.0180481 5.50724
RightShoulder  5.85982 9.986 37.4163
RightArm  0.165559 -10.753 31.3856
RightForeArm  -13.4953 27.2015 6.53832
RightHand  -2.08207 4.57811 -24.2537
LeftUpLeg  -21.3462 3.80128 0.344959
LeftLeg  0.884483 15.0507 -6.35359
LeftFoot  0.0759933 0.925339 -9.23351
LeftToes  1.06245e-005 4.65856e-005 -8.18503e-006
227
root  23.8611 38.7663 5.68242 3.89389 87.88 7.74655
RightUpLeg  -1.91592 -18.4986 -1.81948
RightLeg  30.7501 -2.41581 -1.80343
RightFoot  -19.7328 -0.286845 -2.07301
RightToes  0.000482159 0.542163 -0.142577
Spine  25.5481 -0.163355 11.5733
Spine1  15.517 5.04768 -7.90407
HEad  26.6405 34.4785 -10.6303
LeftShoulder1  7.80836 -11.8563 -44.2627
LeftArm  -15.2925 36.747 -27.5613
LeftForeArm  18.3426 -20.1253 -3.58392
LeftHand  -0.25398 0.0180481 5.50724
RightShoulder  5.87477 9.97289 37.5645
RightArm  2.06982 -11.4917 31.8931
RightForeArm  -14.0812 27.0275 6.52411
RightHand  -2.07352 4.56295 -24.1931
LeftUpLeg  -20.9471 8.42517 -2.47476
LeftLeg  6.86712 7.69433 -3.56165
LeftFoot  -1.08702 0.830096 -9.17315
LeftToes  1.06245e-005 4.65856e-005 -8.18503e-006
228
root  23.0442 39.2387 5.49154 35.3017 87.8281 38.8492
RightUpLeg  -2.50276 -19.3318 -2.99521
RightLeg  28.0116 -1.74671 -1.25122
RightFoot  -16.8353 -0.221861 -2.25548
RightToes  0.000482159 0.542163 -0.142577
Spine  24.4019 0.0793512 11.1833
Spine1  14.9788 5.26287 -8.55324
HEad  28.6134 34.4874 -9.55837
LeftShoulder1  7.61856 -11.5578 -44.0298
LeftArm  -15.9115 35.0368 -28.8941
LeftForeArm  22.0132 -23.0612 -3.79916
LeftHand  -0.25398 0.0180481 5.50724
RightShoulder  5.85166 9.93431 37.5191
RightArm  4.32471 -12.5266 32.5684
RightForeArm  -13.8595 27.4318 6.61155
RightHand  -1.99479 4.2342 -24.065
LeftUpLeg  -20.1981 12.9441 -5.06416
LeftLeg  11.8965 0.969139 -1.17186
LeftFoot  -2.16637 0.749633 -9.16289
LeftToes  1.06245e-005 4.65856e-005 -8.18503e-006
229
root  22.2751 39.6497 5.26814 59.1442 87.2506 62.3838
RightUpLeg  -2.99506 -20.328 -4.21807
RightLeg  25.3596 -0.822583 -0.671567
RightFoot  -14.0286 -0.156182 -2.63793
RightToes  0.000482159 0.542163 -0.142577
Spine  23.1555 0.271723 10.6772
Spine1  14.4866 5.43652 -9.21316
HEad  30.6791 34.6318 -8.28374
LeftShoulder1  7.40094 -11.2506 -43.642
LeftArm  -16.7751 33.6218 -29.9446
LeftForeArm  23.9408 -25.7722 -4.24981
LeftHand  -0.25398 0.0180481 5.50724
RightShoulder  5.76838 9.82065 37.2739
RightArm  6.4345 -13.814 33.3161
RightForeArm  -12.9314 28.1047 6.73184
RightHand  -1.85457 3.65078 -23.8101
LeftUpLeg  -18.6073 13.566 -5.49454
LeftLeg  16.3147 0.165676 0.515456
LeftFoot  -2.84592 0.635628 -8.31436
LeftToes  1.06245e-005 4.65856e-005 -8.18503e-006
